<svg id="Layer_2" data-name="Layer 2" xmlns="http://www.w3.org/2000/svg" viewBox="0 0 920 680"><defs><style>.cls-1{fill:#FFF158;}.cls-2{fill:none;stroke:#f2d500;stroke-linecap:round;stroke-miterlimit:10;stroke-width:14px;}.cls-3{fill:#f2d500;}.cls-4{fill:#7f6d00;}.cls-5{fill:#fff;}.cls-6{fill:#30398b;}.cls-7{fill:#2f398b;}</style></defs><title>mtrack_promo_920x680</title><rect class="cls-1" x="0.75" width="919.25" height="680"/><polyline class="cls-2" points="42.53 608.22 120.81 409.98 145.24 455.06 179.53 372.03 251.79 586.07 374.88 144.74 420.33 312.33 470.48 201.69 573.02 514.89 601.75 413.56 663.27 570.25 804.91 173.22 834.41 233.32 882.38 86.22"/><circle class="cls-3" cx="40.97" cy="613.74" r="17.76"/><polygon class="cls-3" points="891.01 59.12 862.57 94.67 894.56 104.31 891.01 59.12"/><path class="cls-4" d="M348.38,283.52a39.12,39.12,0,0,0,4.17-17.88A36.35,36.35,0,0,0,349.89,252a32.89,32.89,0,0,0-8.64-12.18,40.21,40.21,0,0,0-14.17-8A60.11,60.11,0,0,0,308,229.05a64.62,64.62,0,0,0-48.85,21.25,68.52,68.52,0,0,0-13.45,22.42c-0.29.79-.55,1.59-0.82,2.38,0.07-.4.15-0.78,0.21-1.18,0.3-1.83.56-3.61,0.76-5.28a41.86,41.86,0,0,0,.35-4.88c0-10.55-2.89-19-8.59-25.15-5.89-6.35-14.28-9.56-24.92-9.56a44.87,44.87,0,0,0-13.29,2,53.88,53.88,0,0,0-12,5.44,61.09,61.09,0,0,0-7.78,5.63,30.08,30.08,0,0,0-3.59-4.42c-5.66-5.75-13.65-8.66-23.75-8.66a39.62,39.62,0,0,0-12.56,2.08,54.42,54.42,0,0,0-11.22,5.26l-0.41.25a9.67,9.67,0,0,0-8.6-5.26H90.36a9.66,9.66,0,0,0-9.6,8.51c-0.17,1.44-.43,3.27-0.75,5.45s-0.72,4.64-1.14,7.23-0.91,5.28-1.44,8-1.1,5.68-1.66,8.5L61.64,334.38a9.67,9.67,0,0,0,9.45,11.71h29.81a9.66,9.66,0,0,0,9.45-7.65l10.06-47.13a29.16,29.16,0,0,1,2.88-7.69,36.67,36.67,0,0,1,4.93-7.12,23.77,23.77,0,0,1,5.34-4.55,7.8,7.8,0,0,1,2.1-1v0a21.84,21.84,0,0,1-.41,3.17c-0.36,2-.72,4-1.08,5.92L122.55,334.4A9.66,9.66,0,0,0,132,346.09h29.71a9.66,9.66,0,0,0,9.46-7.7L181,291.26a28.29,28.29,0,0,1,2.89-7.67,35.82,35.82,0,0,1,5-7,25.21,25.21,0,0,1,5.47-4.59,8.53,8.53,0,0,1,2-.94v0a21.54,21.54,0,0,1-.41,3.16q-0.54,3-1.08,5.92L183.18,334.4a9.66,9.66,0,0,0,9.45,11.69h29.53a9.66,9.66,0,0,0,9.45-7.67l9.68-45.83q-0.28,3.31-.28,6.67a59.06,59.06,0,0,0,2.8,18.26,42.88,42.88,0,0,0,9.43,16.13,45.1,45.1,0,0,0,16.12,10.88,58.6,58.6,0,0,0,22.2,3.89,86.11,86.11,0,0,0,11.29-.74,88.42,88.42,0,0,0,10.37-2,89.36,89.36,0,0,0,9-2.82,71.26,71.26,0,0,0,7.65-3.35,9.66,9.66,0,0,0,5-6.62l4.57-22a9.66,9.66,0,0,0-7.66-11.46q1.31-.7,2.54-1.45C340.78,294.09,345.49,289.21,348.38,283.52Zm-44-15.83a8.69,8.69,0,0,1-2,1.28,20.5,20.5,0,0,1-4,1.38,13.92,13.92,0,0,1,2.89-1.82A8.76,8.76,0,0,1,304.42,267.68Zm0.46,39.86q-1.73.27-3.31,0.39,3-.36,5.72-0.82Q306.06,307.36,304.87,307.54Z"/><path class="cls-4" d="M874.21,356a9.67,9.67,0,0,0-8.92-5.95H827.18a9.66,9.66,0,0,0-7.12,3.13l-17.39,19,5.82-25.87c1.14-.29,2.3-0.56,3.39-0.91A62.5,62.5,0,0,0,829,337,56.52,56.52,0,0,0,842,324.49a70.26,70.26,0,0,0,8.37-14.64A77,77,0,0,0,855,294.24a84.13,84.13,0,0,0,1.47-15.37,57,57,0,0,0-3.35-19.9,44.54,44.54,0,0,0-10.23-16.14,45.21,45.21,0,0,0-16.43-10.33,60.53,60.53,0,0,0-21-3.44A71.83,71.83,0,0,0,784.31,232a63.12,63.12,0,0,0-17.09,8.1,58.34,58.34,0,0,0-13,12.17,68.91,68.91,0,0,0-7.08,11.05L761,197.21a9.66,9.66,0,0,0-9.46-11.65H722.22a9.66,9.66,0,0,0-9.45,7.64L705,229.28c-2.12-.15-4.23-0.23-6.28-0.23a72.17,72.17,0,0,0-30.08,6.08A68.77,68.77,0,0,0,646.1,251.4a69.86,69.86,0,0,0-11.84,18l5-23.66a9.66,9.66,0,0,0-7.36-11.45c-2.81-.62-5.94-1.27-9.3-1.92s-6.91-1.22-10.54-1.72-7.37-.89-11.07-1.18-7.62-.45-11.42-0.45a83.69,83.69,0,0,0-26.92,4,67.78,67.78,0,0,0-20.07,10.58,62.65,62.65,0,0,0-13.8,14.82l-0.13.21,2.83-12.34a9.66,9.66,0,0,0-4.68-10.58,43.75,43.75,0,0,0-5-2.36,52.46,52.46,0,0,0-6.86-2.18,74.12,74.12,0,0,0-8-1.51,70.83,70.83,0,0,0-9.39-.6,72.07,72.07,0,0,0-19.85,2.66,66.79,66.79,0,0,0-17,7.47A63.51,63.51,0,0,0,447,250.72a69.25,69.25,0,0,0-5.71,7.35l3.41-16.14a9.66,9.66,0,0,0-8-11.56c-1.07-.16-2.33-0.38-3.73-0.66a34,34,0,0,0-6.65-.65,31.44,31.44,0,0,0-17.85,5.34,9.66,9.66,0,0,0-7-3H372.24a9.66,9.66,0,0,0-9.61,8.63c-0.23,2.13-.53,4.52-0.93,7.3s-0.84,5.52-1.35,8.42-1.07,6-1.65,9-1.18,6-1.78,8.83l-13,60.81a9.66,9.66,0,0,0,9.45,11.69h29.8a9.63,9.63,0,0,0,3.2-.55l-1,4.49h-7.55a9.66,9.66,0,0,0-9.4,7.41l-5.69,23.68a9.66,9.66,0,0,0,9.4,11.92h4.17l-5.91,28.41c-0.27,1.29-.57,2.73-0.88,4.29s-0.63,3.29-.88,4.9-0.48,3.38-.63,5-0.25,3.25-.25,4.66a48.48,48.48,0,0,0,1.61,12.7,29.79,29.79,0,0,0,6.46,12,30.24,30.24,0,0,0,12.07,8.11,45.39,45.39,0,0,0,16.36,2.62,66.29,66.29,0,0,0,7.8-.47c2.5-.3,4.93-0.68,7.25-1.12s4.48-.94,6.46-1.48a53.39,53.39,0,0,0,5.47-1.75,9.63,9.63,0,0,0,3.48-2.36,9.54,9.54,0,0,0,.8,1.26,9.66,9.66,0,0,0,7.52,3.59h32.52a9.66,9.66,0,0,0,9.46-7.68l9.14-43.7a72,72,0,0,1,3.51-11.41,33.23,33.23,0,0,1,4.74-8.31,19.31,19.31,0,0,1,5.63-4.88,12,12,0,0,1,6-1.45,13.7,13.7,0,0,1,3.57.57,18.26,18.26,0,0,1,3.53,1.28,9.67,9.67,0,0,0,4.28,1.09,84.81,84.81,0,0,0-3.47,13.93,88.32,88.32,0,0,0-1.18,13.2,71.54,71.54,0,0,0,2.51,19.57,46.24,46.24,0,0,0,7.89,16,36.53,36.53,0,0,0,13.56,10.73A41.73,41.73,0,0,0,562.34,476a42.32,42.32,0,0,0,14.16-2.24,44,44,0,0,0,9.39-4.63,9.66,9.66,0,0,0,8.05,4.32h32.52a9.66,9.66,0,0,0,9.66-9.66c0-2,.11-4.44.33-7.23,0.23-3,.52-6,0.88-9.08s0.76-6.15,1.18-9,0.82-5,1.24-6.9l0-.12,2-9.5c0,0.5,0,1,0,1.49a65,65,0,0,0,3.08,20.35,46.78,46.78,0,0,0,9.81,17.05A44.89,44.89,0,0,0,671,472.08a56.48,56.48,0,0,0,21.5,3.87,73.56,73.56,0,0,0,18-2.28,79.19,79.19,0,0,0,16.79-6.32,9.61,9.61,0,0,0,3.67-3.41,9.64,9.64,0,0,0,9.65,9.46h32.31a9.66,9.66,0,0,0,9.46-7.67l5.2-24.7,11.2,26.48a9.66,9.66,0,0,0,8.9,5.9h35.77a9.66,9.66,0,0,0,8.68-13.9L828.3,410.71l43.84-44.21A9.67,9.67,0,0,0,874.21,356Zm-76.06-83.55a7.76,7.76,0,0,1,4.8-1.51,3.81,3.81,0,0,1,1.62.27,3.45,3.45,0,0,1,1.19,1,7.28,7.28,0,0,1,1.12,2.43,17.07,17.07,0,0,1,.57,4.6,47.58,47.58,0,0,1-1.32,11.07,33.11,33.11,0,0,1-3.62,9.19,17.61,17.61,0,0,1-5,5.56,8.38,8.38,0,0,1-5.08,1.49,3.27,3.27,0,0,1-2.93-1.25c-1.09-1.28-1.66-3.65-1.66-6.88a44.27,44.27,0,0,1,1.38-10.86,35,35,0,0,1,3.77-9.34A19,19,0,0,1,798.15,272.43Zm-101.52-3.29-2.38,10.8A101.46,101.46,0,0,1,691,291.07a43.55,43.55,0,0,1-4.29,9,20.11,20.11,0,0,1-4.81,5.37,5.32,5.32,0,0,1-3.39,1.11,2.55,2.55,0,0,1-.85-0.09,0.52,0.52,0,0,1-.22-0.2,6.71,6.71,0,0,1-.84-2.05,16.36,16.36,0,0,1-.45-4,43.69,43.69,0,0,1,.51-6,44.28,44.28,0,0,1,1.69-7.19,41.42,41.42,0,0,1,3.14-7.24,23.79,23.79,0,0,1,4.28-5.64,18.76,18.76,0,0,1,5.6-3.72A16.3,16.3,0,0,1,696.63,269.14Zm-180,20.5a81.73,81.73,0,0,0-1.09,12.22c0,0.28,0,.55,0,0.83a9.62,9.62,0,0,0-12.12-1.58,29.93,29.93,0,0,1-3.76,2c-1.53.68-3.16,1.3-4.85,1.85a37.09,37.09,0,0,1-4.75,1.22,22.63,22.63,0,0,1-4.06.4c-4.5,0-5.68-1.38-6.07-1.84-1.77-2.07-2.15-5.78-2.15-8.52a29.73,29.73,0,0,1,1.57-9.28,28.66,28.66,0,0,1,4.38-8.44,21.25,21.25,0,0,1,6.44-5.67,14.57,14.57,0,0,1,7.47-1.88,23.17,23.17,0,0,1,7.69,1.22,20.21,20.21,0,0,1,5.53,2.75,9.64,9.64,0,0,0,9.1,1.43A79,79,0,0,0,516.67,289.65Zm-85.2,27.71a9.64,9.64,0,0,0-1.51.23l-33.84,8.33a9.55,9.55,0,0,0-1,.32L401,298.35A64.7,64.7,0,0,1,404.15,288a29.58,29.58,0,0,1,4.23-7.42,16.85,16.85,0,0,1,4.92-4.27,10.2,10.2,0,0,1,5.13-1.23,11.75,11.75,0,0,1,3.06.49,16.11,16.11,0,0,1,3.08,1.11,9.67,9.67,0,0,0,4.48,1.1h0.19a9.66,9.66,0,0,0,2.89-.47q-0.64,2.1-1.15,4.25a76.91,76.91,0,0,0-2.08,17.85A60.82,60.82,0,0,0,431.48,317.36ZM439,430.84a9.66,9.66,0,0,0-9.63-1.78c-0.41.15-1.16,0.41-2.46,0.8-1.07.33-2.2,0.65-3.39,0.95-1,.27-2,0.48-3,0.64l-0.38.06q0.13-.85.28-1.74,0.22-1.36.5-2.73c0.21-1.07.39-2.06,0.54-3l6.64-31h16.47a9.58,9.58,0,0,0,3.87-.84c-0.22,1.08-.44,2.16-0.66,3.2L440,431.81A9.82,9.82,0,0,0,439,430.84ZM596.65,389.4l-3,13.52a106.18,106.18,0,0,1-3.4,11.86,44.93,44.93,0,0,1-4.67,9.7,23.39,23.39,0,0,1-5.58,6.1,7.2,7.2,0,0,1-4.56,1.45,2.3,2.3,0,0,1-.85-0.11,2.11,2.11,0,0,1-.76-0.72,6.66,6.66,0,0,1-.93-2.27,20.54,20.54,0,0,1-.5-4.72,50.47,50.47,0,0,1,.57-6.88,48.75,48.75,0,0,1,1.87-8,44.46,44.46,0,0,1,3.47-8,26.36,26.36,0,0,1,4.8-6.25,21.81,21.81,0,0,1,6.41-4.23A19.62,19.62,0,0,1,596.65,389.4Zm-16.91-119a16.29,16.29,0,0,1,5.19-1.22l-2.52,11.35a96.65,96.65,0,0,1-3.09,10.78,40.36,40.36,0,0,1-4.19,8.72,20.61,20.61,0,0,1-4.92,5.38,5.83,5.83,0,0,1-3.69,1.17,1.93,1.93,0,0,1-.48,0,1.71,1.71,0,0,1-.33-0.37,5.4,5.4,0,0,1-.72-1.8,18,18,0,0,1-.44-4.15A45,45,0,0,1,565,294a44,44,0,0,1,1.68-7.22,40.24,40.24,0,0,1,3.12-7.16,23,23,0,0,1,4.25-5.53A19.2,19.2,0,0,1,579.74,270.37ZM654,364.66a9.66,9.66,0,0,0-7.36-11.45c-3.16-.7-6.56-1.4-10.12-2.09-3.72-.71-7.57-1.34-11.46-1.86s-8-1-12-1.28-8.29-.49-12.39-0.49c-11,0-20.75,1.44-29.08,4.28a73.18,73.18,0,0,0-21.65,11.4,69.82,69.82,0,0,0-11,10.74l2.84-13.44a9.66,9.66,0,0,0-8-11.55c-1.22-.18-2.6-0.43-4.11-0.73a36.34,36.34,0,0,0-7.08-.7,33.43,33.43,0,0,0-19.63,6.12l-0.34-.39a9.66,9.66,0,0,0-7.17-3.19H463.63a9.61,9.61,0,0,0-6.76,2.8,9.62,9.62,0,0,0-6.71-2.8H437.35l3.34-16c0.08,0.09.15,0.19,0.23,0.28a41.9,41.9,0,0,0,15.26,10.54,52.61,52.61,0,0,0,20,3.61,68.19,68.19,0,0,0,16.72-2.11,73.38,73.38,0,0,0,15.56-5.85,9.66,9.66,0,0,0,5-6.67L517,316.4c0.26,1.24.55,2.46,0.88,3.63a43.21,43.21,0,0,0,7.38,14.91A34.24,34.24,0,0,0,538,345a39,39,0,0,0,16.48,3.4,39.6,39.6,0,0,0,13.25-2.1,41.31,41.31,0,0,0,8.13-3.91,9.65,9.65,0,0,0,7.59,3.68h29.8a9.66,9.66,0,0,0,9.66-9.66c0-1.81.1-4,.3-6.57s0.47-5.45.8-8.3,0.69-5.62,1.08-8.22,0.75-4.6,1.12-6.27l1-4.72a65.36,65.36,0,0,0,2.39,18.21,41.28,41.28,0,0,0,7.66,14.91,34.82,34.82,0,0,0,12.78,9.7,42,42,0,0,0,28.45,1.44,40.49,40.49,0,0,0,9-4.18,9.65,9.65,0,0,0,7.58,3.67h29.8a9.66,9.66,0,0,0,9.66-9.66c0-1.8.1-4,.3-6.57s0.48-5.48.8-8.29,0.69-5.62,1.08-8.22,0.75-4.6,1.12-6.27l0-.14,1.1-5.22a58.21,58.21,0,0,0,2.9,15.79,44.19,44.19,0,0,0,9.78,16.35,41.61,41.61,0,0,0,6.24,5.31L737.42,433a9.65,9.65,0,0,0-14.7-7.06,33.61,33.61,0,0,1-4.21,2.2c-1.69.75-3.5,1.43-5.37,2a40.79,40.79,0,0,1-5.29,1.36,25.5,25.5,0,0,1-4.6.45c-5.31,0-6.81-1.74-7.3-2.31-2.11-2.46-2.55-6.73-2.55-9.87a33.38,33.38,0,0,1,1.75-10.4,32.15,32.15,0,0,1,4.92-9.47,24.07,24.07,0,0,1,7.29-6.41,16.74,16.74,0,0,1,8.59-2.16,26.09,26.09,0,0,1,8.68,1.38,23.13,23.13,0,0,1,6.29,3.14,9.66,9.66,0,0,0,15.28-5.51l5.79-25.2a9.67,9.67,0,0,0-4.68-10.59,47,47,0,0,0-5.38-2.52,56.59,56.59,0,0,0-7.37-2.35,80.33,80.33,0,0,0-8.68-1.62,76.75,76.75,0,0,0-10.13-.65,77.77,77.77,0,0,0-21.41,2.86A72,72,0,0,0,676,358.41a68.39,68.39,0,0,0-14.79,12.43,74.33,74.33,0,0,0-10.69,15.54c-0.77,1.49-1.48,3-2.15,4.57Z"/><path class="cls-5" d="M181.76,336.18a7,7,0,0,1-6.84-8.46l11.62-54.31q0.55-2.9,1.09-6a23.26,23.26,0,0,0,.45-3.62,5,5,0,0,0-.47-2.56A4.65,4.65,0,0,0,186,261a8.2,8.2,0,0,0-3.92,1.41,27.84,27.84,0,0,0-6.05,5.07,38.44,38.44,0,0,0-5.35,7.57,31,31,0,0,0-3.16,8.43L157.7,330.6a7,7,0,0,1-6.85,5.58H121.13a7,7,0,0,1-6.84-8.47l11.63-54.31q0.54-2.9,1.09-6a23.46,23.46,0,0,0,.45-3.63,4.49,4.49,0,0,0-.51-2.56h0a4.1,4.1,0,0,0-1.62-.22,8.26,8.26,0,0,0-4,1.41,26.36,26.36,0,0,0-6,5.06,39.27,39.27,0,0,0-5.29,7.63,31.83,31.83,0,0,0-3.14,8.4L96.86,330.64A7,7,0,0,1,90,336.18H60.21a7,7,0,0,1-6.84-8.48l14.14-65.32q0.83-4.24,1.66-8.53c0.54-2.78,1-5.51,1.46-8.1s0.81-5,1.15-7.26,0.58-4,.76-5.52a7,7,0,0,1,7-6.17h29.06a7,7,0,0,1,7,6.88q1.67-1.2,3.4-2.26a51.78,51.78,0,0,1,10.67-5,37,37,0,0,1,11.72-1.94c9.36,0,16.71,2.65,21.85,7.86A27.74,27.74,0,0,1,168,239a59.32,59.32,0,0,1,9.81-7.5,51.27,51.27,0,0,1,11.44-5.18,42.22,42.22,0,0,1,12.5-1.9c9.87,0,17.6,2.93,23,8.71s7.88,13.49,7.88,23.35a39.28,39.28,0,0,1-.33,4.56c-0.2,1.64-.45,3.37-0.74,5.16s-0.6,3.46-.92,5.09-0.62,3.06-.87,4.22l-11.63,55.08a7,7,0,0,1-6.85,5.55H181.76Z"/><path class="cls-6" d="M201.79,231.47q11.83,0,17.84,6.47t6,18.58a33.2,33.2,0,0,1-.28,3.73q-0.28,2.33-.7,4.84T223.77,270q-0.47,2.38-.84,4.05l-11.64,55.14H181.76l11.64-54.4q0.56-3,1.12-6.15a30.18,30.18,0,0,0,.56-4.84q0-4.66-2.24-7.22T186,254a14.69,14.69,0,0,0-7.54,2.42,34.65,34.65,0,0,0-7.59,6.33,45.26,45.26,0,0,0-6.33,8.94A37.79,37.79,0,0,0,160.62,282l-9.78,47.13H121.13l11.64-54.4q0.56-3,1.12-6.15a30.43,30.43,0,0,0,.56-4.84q0-4.66-2.28-7.22T125.32,254a14.81,14.81,0,0,0-7.64,2.42,33.2,33.2,0,0,0-7.54,6.38,46.08,46.08,0,0,0-6.24,9A38.67,38.67,0,0,0,100.08,282L90,329.18H60.21l14.16-65.39q0.84-4.28,1.68-8.61t1.49-8.29q0.65-4,1.16-7.36t0.79-5.73h29.06q-0.28,2.61-.61,5.45t-0.65,5.45q-0.33,2.61-.61,4.61t-0.47,2.84h0.37a67.83,67.83,0,0,1,7.5-8.24,54.13,54.13,0,0,1,8.52-6.52,44.56,44.56,0,0,1,9.22-4.33,29.85,29.85,0,0,1,9.5-1.58q11.18,0,16.86,5.77t6.61,16a66.45,66.45,0,0,1,7.73-8.85,52.14,52.14,0,0,1,8.94-6.89,44,44,0,0,1,9.88-4.47,35.07,35.07,0,0,1,10.43-1.58m-93.24,2.33h0m93.23-16.33a49.22,49.22,0,0,0-14.57,2.21,58.24,58.24,0,0,0-13,5.88q-2.44,1.48-4.78,3.21-0.61-.69-1.25-1.34c-6.5-6.61-15.53-10-26.84-10a44,44,0,0,0-13.93,2.3,58,58,0,0,0-9.12,4,14,14,0,0,0-9.73-3.93H79.49a14,14,0,0,0-13.9,12.33c-0.17,1.39-.41,3.18-0.74,5.32s-0.69,4.49-1.13,7.18c-0.42,2.52-.9,5.19-1.42,7.89s-1.1,5.64-1.64,8.45L46.53,326.21a14,14,0,0,0,13.68,17H90a14,14,0,0,0,13.69-11.08L113.77,285a24.86,24.86,0,0,1,2.46-6.54,34.72,34.72,0,0,1,2.21-3.6l-11,51.42a14,14,0,0,0,13.69,16.93h29.71A14,14,0,0,0,164.55,332l9.78-47.13a23.6,23.6,0,0,1,2.45-6.47,33.67,33.67,0,0,1,2.33-3.69l-11,51.52a14,14,0,0,0,13.69,16.93h29.53A14,14,0,0,0,225,332.07L236.62,277c0.26-1.17.55-2.58,0.89-4.3s0.66-3.5,1-5.3,0.58-3.73.79-5.47a45.65,45.65,0,0,0,.38-5.4c0-11.68-3.28-21.13-9.74-28.1-6.75-7.27-16.2-11-28.1-11h0Z"/><path class="cls-5" d="M280.7,338.51a56,56,0,0,1-21.19-3.69,42.43,42.43,0,0,1-15.18-10.23,40.25,40.25,0,0,1-8.85-15.14A56.38,56.38,0,0,1,232.8,292a73.8,73.8,0,0,1,4.49-25.61,65.89,65.89,0,0,1,12.93-21.56,62,62,0,0,1,46.87-20.37,57.53,57.53,0,0,1,18.26,2.6,37.59,37.59,0,0,1,13.25,7.44,30.27,30.27,0,0,1,8,11.2A33.7,33.7,0,0,1,339,258.39a36.48,36.48,0,0,1-3.88,16.67c-2.67,5.26-7,9.77-13,13.42-5.54,3.38-12.81,6-21.62,7.91a150.17,150.17,0,0,1-23.63,2.75,7,7,0,0,0,1,1.19,9.93,9.93,0,0,0,3.54,2.15,19.59,19.59,0,0,0,6.79,1,41.74,41.74,0,0,0,6.25-.52,59.14,59.14,0,0,0,7.21-1.58,74.53,74.53,0,0,0,7.45-2.55,55.28,55.28,0,0,0,6.66-3.18A7,7,0,0,1,326,303.12l-4.57,22a7,7,0,0,1-3.64,4.8,68.81,68.81,0,0,1-7.37,3.22,86.7,86.7,0,0,1-8.77,2.74,85.44,85.44,0,0,1-10,1.93A83.32,83.32,0,0,1,280.7,338.51Zm13.5-80.76a11.31,11.31,0,0,0-4.9,1.11,17.18,17.18,0,0,0-4.91,3.5,22,22,0,0,0-3.41,4.49c6-.58,9.63-1.73,11.7-2.74,4.3-2.09,4.3-4.21,4.3-5.35a0.46,0.46,0,0,0-.22-0.5A4.51,4.51,0,0,0,294.2,257.75Z"/><path class="cls-6" d="M297.09,231.47a50.4,50.4,0,0,1,16,2.24,30.53,30.53,0,0,1,10.8,6,23.23,23.23,0,0,1,6.15,8.61,26.6,26.6,0,0,1,2,10.06,29.41,29.41,0,0,1-3.12,13.5q-3.12,6.15-10.43,10.62t-19.42,7q-12.11,2.56-30.18,2.84a3.07,3.07,0,0,0-.19,1v0.88a18.73,18.73,0,0,0,.93,5.78,13.13,13.13,0,0,0,3.21,5.22,16.7,16.7,0,0,0,6,3.77,25.94,25.94,0,0,0,9.31,1.44,48.48,48.48,0,0,0,7.31-.61,65.76,65.76,0,0,0,8.06-1.77,81.18,81.18,0,0,0,8.15-2.79,62,62,0,0,0,7.5-3.59l-4.57,22a61.54,61.54,0,0,1-6.61,2.89,79.3,79.3,0,0,1-8.06,2.51,78.06,78.06,0,0,1-9.22,1.77,76,76,0,0,1-10,.65,48.87,48.87,0,0,1-18.54-3.17,35.36,35.36,0,0,1-12.71-8.52,33.14,33.14,0,0,1-7.31-12.53A49.16,49.16,0,0,1,239.8,292a66.53,66.53,0,0,1,4.05-23.19,58.65,58.65,0,0,1,11.55-19.28,55,55,0,0,1,41.68-18.07m-24.88,42.76q15.65,0,23.53-3.83,8.24-4,8.24-11.64a7.36,7.36,0,0,0-2.56-5.73q-2.56-2.28-7.22-2.28a18.33,18.33,0,0,0-7.87,1.77,24.31,24.31,0,0,0-6.89,4.89,29.62,29.62,0,0,0-5.36,7.45,38.45,38.45,0,0,0-3.35,9.36h1.48m47,27.47h0m-22.08-84.23A69,69,0,0,0,245,240.15,72.86,72.86,0,0,0,230.72,264a80.79,80.79,0,0,0-4.92,28,63.36,63.36,0,0,0,3,19.6,47.19,47.19,0,0,0,10.38,17.74,49.38,49.38,0,0,0,17.65,11.94,62.88,62.88,0,0,0,23.84,4.21,90.39,90.39,0,0,0,11.86-.77,92.49,92.49,0,0,0,10.88-2.1,93.62,93.62,0,0,0,9.47-3,75.73,75.73,0,0,0,8.12-3.55,14,14,0,0,0,7.29-9.6l4.49-21.6a14,14,0,0,0-3.46-12.86,39.25,39.25,0,0,0,12-13.84A43.42,43.42,0,0,0,346,258.39a40.66,40.66,0,0,0-3-15.3,37.2,37.2,0,0,0-9.76-13.78,44.5,44.5,0,0,0-15.69-8.87,64.42,64.42,0,0,0-20.5-3h0Z"/><path class="cls-5" d="M342.46,336.18a7,7,0,0,1-6.84-8.47l13-60.82c0.6-2.84,1.21-5.83,1.78-8.87s1.14-6.1,1.66-9.08,1-5.78,1.36-8.5,0.71-5.23.94-7.38a7,7,0,0,1,7-6.25h29.16a7,7,0,0,1,6.38,4.12,28.91,28.91,0,0,1,18.49-6.45,31.28,31.28,0,0,1,6.12.6c1.45,0.29,2.74.52,3.86,0.69a7,7,0,0,1,5.81,8.37l-6,28.22a7,7,0,0,1-6.85,5.55h-0.18a7,7,0,0,1-3.24-.8,18.67,18.67,0,0,0-3.61-1.32,14.36,14.36,0,0,0-3.77-.59,12.78,12.78,0,0,0-6.44,1.57,19.46,19.46,0,0,0-5.7,4.93,32.24,32.24,0,0,0-4.61,8.08,67.53,67.53,0,0,0-3.33,10.85l-8.37,40a7,7,0,0,1-6.85,5.57h-29.8Z"/><path class="cls-6" d="M415.39,231.47a24.21,24.21,0,0,1,4.75.47q2.32,0.47,4.19.75l-6,28.22h-0.19a25.65,25.65,0,0,0-5-1.86,21.2,21.2,0,0,0-5.64-.84,19.76,19.76,0,0,0-9.87,2.47,26.55,26.55,0,0,0-7.73,6.66,39,39,0,0,0-5.64,9.83,74.22,74.22,0,0,0-3.68,12l-8.39,40.05h-29.8l13-60.82q0.93-4.37,1.82-9t1.68-9.18q0.79-4.52,1.4-8.71t1-7.64h29.15q-0.28,2.7-.61,5.59t-0.65,5.54q-0.33,2.65-.65,4.8t-0.51,3.35h0.37q5.77-10.71,12.15-16.16a22.06,22.06,0,0,1,14.76-5.45m-24.87,2.33h0m24.86-16.33a36.27,36.27,0,0,0-17.5,4.42,13.93,13.93,0,0,0-7.36-2.09H361.36a14,14,0,0,0-13.92,12.5c-0.22,2.07-.52,4.41-0.92,7.15s-0.83,5.43-1.33,8.29-1.07,5.95-1.64,9-1.16,5.95-1.76,8.73l-13,60.8a14,14,0,0,0,13.69,16.93h29.8A14,14,0,0,0,386,332l8.37-40a60.5,60.5,0,0,1,3-9.65,25.33,25.33,0,0,1,3.59-6.35,12.6,12.6,0,0,1,3.67-3.2,5.76,5.76,0,0,1,3-.67,7.5,7.5,0,0,1,1.9.33,12.46,12.46,0,0,1,2.23.78,14,14,0,0,0,6.49,1.59h0.19a14,14,0,0,0,13.7-11.11l6-28.22a14,14,0,0,0-11.63-16.74c-1-.15-2.19-0.36-3.52-0.63a38.35,38.35,0,0,0-7.5-.74h0Z"/><path class="cls-5" d="M465.32,338.51a50,50,0,0,1-19-3.41,39.25,39.25,0,0,1-14.3-9.87,41.09,41.09,0,0,1-8.6-15,57.82,57.82,0,0,1-2.73-18.07,74.23,74.23,0,0,1,2-17.23,70.77,70.77,0,0,1,5.85-15.87,66.27,66.27,0,0,1,9.53-13.85,60.85,60.85,0,0,1,13.16-11.05A64.11,64.11,0,0,1,467.54,227a69.4,69.4,0,0,1,19.11-2.55,68.18,68.18,0,0,1,9,.58,71.46,71.46,0,0,1,7.75,1.45,49.85,49.85,0,0,1,6.51,2.07,40.79,40.79,0,0,1,4.72,2.21,7,7,0,0,1,3.39,7.67l-5.31,23.1a7,7,0,0,1-11.07,4,23.08,23.08,0,0,0-6.27-3.15,25.81,25.81,0,0,0-8.57-1.37,17.15,17.15,0,0,0-8.8,2.23,23.86,23.86,0,0,0-7.24,6.36,31.33,31.33,0,0,0-4.79,9.22,32.44,32.44,0,0,0-1.7,10.11c0,4.65.94,8.1,2.78,10.25,0.59,0.69,2.38,2.77,8.1,2.77a25.28,25.28,0,0,0,4.55-.44,39.83,39.83,0,0,0,5.1-1.31c1.77-.58,3.48-1.23,5.08-1.94a32.67,32.67,0,0,0,4.11-2.14,7,7,0,0,1,10.56,7.33L500,326a7,7,0,0,1-3.66,4.83,70.7,70.7,0,0,1-15,5.64A65.5,65.5,0,0,1,465.32,338.51Z"/><path class="cls-6" d="M486.65,231.47a60.9,60.9,0,0,1,8.1.51,64.19,64.19,0,0,1,7,1.3,42.69,42.69,0,0,1,5.59,1.77,34.51,34.51,0,0,1,3.91,1.82L505.93,260a29.77,29.77,0,0,0-8.2-4.19,32.63,32.63,0,0,0-10.9-1.77,24.18,24.18,0,0,0-12.29,3.17,31,31,0,0,0-9.32,8.2,38.14,38.14,0,0,0-5.87,11.27,39.23,39.23,0,0,0-2,12.29q0,9.6,4.47,14.81T475.19,309a32.16,32.16,0,0,0,5.82-.56,46.58,46.58,0,0,0,6-1.54q3-1,5.73-2.19a39.49,39.49,0,0,0,5-2.61l-4.57,22.54a63.42,63.42,0,0,1-13.51,5.08,58.24,58.24,0,0,1-14.34,1.82A42.84,42.84,0,0,1,449,328.62a32.17,32.17,0,0,1-11.78-8.1,34,34,0,0,1-7.13-12.43,50.61,50.61,0,0,1-2.37-15.88,66.92,66.92,0,0,1,1.82-15.6,63.44,63.44,0,0,1,5.26-14.3,59,59,0,0,1,8.52-12.39,53.59,53.59,0,0,1,11.64-9.78,56.86,56.86,0,0,1,14.53-6.38,62.12,62.12,0,0,1,17.18-2.28m11.08,70.6h0m-11.09-84.6a76.39,76.39,0,0,0-21,2.82,71.11,71.11,0,0,0-18.09,8,67.82,67.82,0,0,0-14.67,12.32,73.24,73.24,0,0,0-10.54,15.32,77.74,77.74,0,0,0-6.43,17.43,81.26,81.26,0,0,0-2.2,18.86,64.78,64.78,0,0,0,3.07,20.25,48,48,0,0,0,10.08,17.49,46.19,46.19,0,0,0,16.82,11.63,56.89,56.89,0,0,0,21.66,3.94,72.51,72.51,0,0,0,17.78-2.25,77.75,77.75,0,0,0,16.48-6.2,14,14,0,0,0,7.31-9.67l4.49-22.16a14,14,0,0,0-13.64-17.16h-0.09a13.93,13.93,0,0,0-7.47,2.21,26,26,0,0,1-3.07,1.58c-1.41.62-2.9,1.19-4.46,1.7a32.71,32.71,0,0,1-4.19,1.07,18.28,18.28,0,0,1-3.27.33,7.37,7.37,0,0,1-2.83-.39c-0.23-.31-1.06-1.72-1.06-5.64a25.45,25.45,0,0,1,1.35-7.92,24,24,0,0,1,3.72-7.17,17,17,0,0,1,5.15-4.53,10.21,10.21,0,0,1,5.31-1.3,18.6,18.6,0,0,1,6.25,1,16,16,0,0,1,4.34,2.11,14,14,0,0,0,22.15-8l5.31-23.1a14,14,0,0,0-6.77-15.33,47.7,47.7,0,0,0-5.54-2.6,56.84,56.84,0,0,0-7.44-2.37,78.47,78.47,0,0,0-8.52-1.6,75.19,75.19,0,0,0-10-.64h0Z"/><path class="cls-5" d="M543.62,338.51a36.39,36.39,0,0,1-15.37-3.16A31.63,31.63,0,0,1,516.5,326a40.55,40.55,0,0,1-6.9-14,63.8,63.8,0,0,1-2.22-17.43,79.28,79.28,0,0,1,1.06-11.82,77.93,77.93,0,0,1,3.88-14.75,74.73,74.73,0,0,1,7.85-15.42,60.05,60.05,0,0,1,13.22-14.19,65.14,65.14,0,0,1,19.29-10.15,81.06,81.06,0,0,1,26.05-3.82c3.72,0,7.5.15,11.21,0.44s7.32,0.67,10.91,1.16,7.08,1.06,10.4,1.69,6.45,1.28,9.23,1.9a7,7,0,0,1,5.33,8.29l-13,61.2c-0.41,1.82-.8,4-1.18,6.55s-0.76,5.43-1.09,8.3-0.61,5.69-.81,8.4-0.3,4.9-.3,6.77a7,7,0,0,1-7,7h-29.8a7,7,0,0,1-6.67-4.86l-0.31.23a38.17,38.17,0,0,1-9.64,5A36.92,36.92,0,0,1,543.62,338.51Zm32.6-79.36a20.93,20.93,0,0,0-8.44,1.55,22.08,22.08,0,0,0-6.4,4.23,26,26,0,0,0-4.74,6.17,42.9,42.9,0,0,0-3.33,7.64,46.51,46.51,0,0,0-1.78,7.64,47.85,47.85,0,0,0-.54,6.57,20.68,20.68,0,0,0,.51,4.76,7.93,7.93,0,0,0,1.12,2.7,3.82,3.82,0,0,0,1.32,1.23,3.52,3.52,0,0,0,1.69.34,8.46,8.46,0,0,0,5.29-1.7,23.22,23.22,0,0,0,5.56-6.06,43,43,0,0,0,4.47-9.29,99.12,99.12,0,0,0,3.18-11.09l3.25-14.65Z"/><path class="cls-6" d="M578.74,231.47q5.31,0,10.67.42T599.93,233q5.17,0.7,10,1.63t9,1.86l-13,61.19q-0.65,2.89-1.26,7t-1.12,8.52q-0.51,4.43-.84,8.66t-0.33,7.31h-29.8q0-1.4.14-3.59t0.33-4.47q0.18-2.28.42-4.47t0.42-3.68h-0.37q-2.7,3.63-5.59,7a37.51,37.51,0,0,1-6.43,5.92,31,31,0,0,1-7.87,4.1,29.87,29.87,0,0,1-10,1.54A29.33,29.33,0,0,1,531.19,329a24.58,24.58,0,0,1-9.17-7.27,33.45,33.45,0,0,1-5.68-11.6,56.55,56.55,0,0,1-2-15.51,73.14,73.14,0,0,1,1-10.76,70.62,70.62,0,0,1,3.54-13.41,67.39,67.39,0,0,1,7.12-14A52.81,52.81,0,0,1,537.71,244a57.93,57.93,0,0,1,17.23-9q10.11-3.45,23.8-3.45M555.64,309a15.47,15.47,0,0,0,9.45-3.07,30.07,30.07,0,0,0,7.27-7.87,49.75,49.75,0,0,0,5.22-10.8,105.6,105.6,0,0,0,3.4-11.88l4.94-22.26a38.38,38.38,0,0,0-4.75-.7q-2.61-.23-4.94-0.23A27.7,27.7,0,0,0,565,254.29a28.94,28.94,0,0,0-8.43,5.59,32.74,32.74,0,0,0-6,7.83,49.63,49.63,0,0,0-3.87,8.89,53.32,53.32,0,0,0-2,8.8,54.36,54.36,0,0,0-.61,7.54,27.47,27.47,0,0,0,.7,6.38,14.75,14.75,0,0,0,2.19,5.08,10.81,10.81,0,0,0,3.68,3.35,10.31,10.31,0,0,0,5.08,1.21m23.1-91.5a88,88,0,0,0-28.32,4.2,72.1,72.1,0,0,0-21.35,11.27,67,67,0,0,0-14.75,15.85,81.7,81.7,0,0,0-8.58,16.88,84.93,84.93,0,0,0-4.22,16.08,86,86,0,0,0-1.14,12.88A70.73,70.73,0,0,0,502.87,314a47.5,47.5,0,0,0,8.14,16.4,38.54,38.54,0,0,0,14.32,11.33,43.31,43.31,0,0,0,18.3,3.8,43.88,43.88,0,0,0,14.7-2.35,46.27,46.27,0,0,0,6.06-2.64,13.94,13.94,0,0,0,8.21,2.66h29.8a14,14,0,0,0,14-14c0-1.69.1-3.79,0.28-6.24,0.2-2.61.47-5.34,0.79-8.13s0.68-5.53,1.06-8.08c0.35-2.38.71-4.38,1.06-6l0-.16,13-61.2A14,14,0,0,0,622,222.83c-2.85-.63-6-1.29-9.42-1.94s-7.07-1.25-10.78-1.76-7.54-.91-11.32-1.2-7.85-.46-11.75-0.46h0ZM558,293.59q0-.32,0-0.64a40.83,40.83,0,0,1,.47-5.58,39.61,39.61,0,0,1,1.52-6.51,35.81,35.81,0,0,1,2.78-6.38,18.66,18.66,0,0,1,3.46-4.51,13.73,13.73,0,0,1,1.94-1.55l-0.86,3.89a92,92,0,0,1-3,10.29,36,36,0,0,1-3.73,7.79,17.55,17.55,0,0,1-2.61,3.2h0Z"/><path class="cls-5" d="M655.46,338.51a37.14,37.14,0,0,1-15.18-3,32.18,32.18,0,0,1-11.82-9,38.65,38.65,0,0,1-7.15-14A62.77,62.77,0,0,1,619,295a77.08,77.08,0,0,1,4.61-26.47,67.86,67.86,0,0,1,13.55-22.57,66.15,66.15,0,0,1,21.7-15.63,69.55,69.55,0,0,1,29-5.85c2.69,0,5.46.14,8.26,0.4h0.13l8.24-38.38a7,7,0,0,1,6.84-5.53h29.34a7,7,0,0,1,6.85,8.44L724.41,299.24c-0.39,1.74-.78,3.91-1.16,6.47s-0.76,5.43-1.09,8.3-0.61,5.69-.81,8.39-0.31,4.91-.31,6.78a7,7,0,0,1-7,7h-29.8a7,7,0,0,1-6.66-4.84l-1.21.85a37.71,37.71,0,0,1-9.55,4.63A37.08,37.08,0,0,1,655.46,338.51Zm32.41-79.36a20.92,20.92,0,0,0-8.44,1.54,21.32,21.32,0,0,0-6.37,4.24,26.4,26.4,0,0,0-4.75,6.26,44,44,0,0,0-3.34,7.72,46.72,46.72,0,0,0-1.78,7.61,46.21,46.21,0,0,0-.54,6.42,19,19,0,0,0,.53,4.65,9.18,9.18,0,0,0,1.21,2.88,3.21,3.21,0,0,0,1.21,1.09,4.5,4.5,0,0,0,2.08.4,7.93,7.93,0,0,0,5-1.63,22.76,22.76,0,0,0,5.46-6.08,46.12,46.12,0,0,0,4.56-9.54A104.06,104.06,0,0,0,686,273.23l3.11-14.07Z"/><path class="cls-6" d="M740.68,188l-23.1,109.72q-0.65,2.89-1.26,7t-1.12,8.52q-0.51,4.43-.84,8.66T714,329.18h-29.8q0-1.3.14-3.49t0.37-4.52q0.23-2.32.47-4.52t0.33-3.49h-0.37a70.79,70.79,0,0,1-6,7.45,39,39,0,0,1-6.71,5.77,30.54,30.54,0,0,1-7.78,3.77,32.42,32.42,0,0,1-21.56-1.07,25.13,25.13,0,0,1-9.27-7A31.58,31.58,0,0,1,628,310.59a55.56,55.56,0,0,1-2-15.6,69.78,69.78,0,0,1,4.19-24.08,60.63,60.63,0,0,1,12.15-20.26,58.91,58.91,0,0,1,19.42-14,62.33,62.33,0,0,1,26.08-5.22q3.72,0,7.59.37t6.29,0.84L711.35,188h29.34m-73,121a14.93,14.93,0,0,0,9.17-3A29.55,29.55,0,0,0,684,298a52.87,52.87,0,0,0,5.26-11,110.71,110.71,0,0,0,3.54-12.25l4.75-21.52a32.51,32.51,0,0,0-4.7-.84,46.56,46.56,0,0,0-5-.28,27.7,27.7,0,0,0-11.27,2.14,28.47,28.47,0,0,0-8.43,5.63,33.26,33.26,0,0,0-6,7.92,50.85,50.85,0,0,0-3.87,8.94,53.63,53.63,0,0,0-2,8.76,52.9,52.9,0,0,0-.61,7.4,25.83,25.83,0,0,0,.74,6.38,16,16,0,0,0,2.19,5.08,10.17,10.17,0,0,0,3.73,3.35,11.27,11.27,0,0,0,5.36,1.21m73-135H711.35A14,14,0,0,0,697.66,185l-7,32.48q-1.42,0-2.81,0A76.47,76.47,0,0,0,656,223.94a73.12,73.12,0,0,0-24,17.3,74.84,74.84,0,0,0-15,24.88A84.05,84.05,0,0,0,612,295a69.73,69.73,0,0,0,2.57,19.54A45.59,45.59,0,0,0,623.07,331a39.12,39.12,0,0,0,14.36,10.89,46.37,46.37,0,0,0,31.53,1.6,45.05,45.05,0,0,0,7.07-3,13.94,13.94,0,0,0,8.2,2.65H714a14,14,0,0,0,14-14c0-1.68.1-3.78,0.29-6.24,0.2-2.63.47-5.36,0.79-8.13s0.68-5.53,1.06-8.09c0.35-2.38.71-4.39,1.06-6l0-.2,23.1-109.72A14,14,0,0,0,740.68,174h0Zm0,28h0Zm-71,91.71q0-.36,0-0.74a39.42,39.42,0,0,1,.46-5.41,39.91,39.91,0,0,1,1.53-6.48,37.05,37.05,0,0,1,2.81-6.48,19.18,19.18,0,0,1,3.5-4.62,13.4,13.4,0,0,1,1.94-1.56l-0.74,3.34a97.19,97.19,0,0,1-3.08,10.66,39.16,39.16,0,0,1-3.86,8.1,17.91,17.91,0,0,1-2.54,3.2h0Z"/><path class="cls-5" d="M779.31,338.51a57.84,57.84,0,0,1-21-3.55,42.36,42.36,0,0,1-15.53-10.18,41.53,41.53,0,0,1-9.19-15.37,56.58,56.58,0,0,1-2.89-18.23,80.11,80.11,0,0,1,1.53-15.36,71.63,71.63,0,0,1,4.8-15.23,65.82,65.82,0,0,1,8.39-13.92,55.65,55.65,0,0,1,12.46-11.61,60.47,60.47,0,0,1,16.37-7.75,69.2,69.2,0,0,1,20.37-2.83,57.88,57.88,0,0,1,20.08,3.28,42.55,42.55,0,0,1,15.47,9.71,41.87,41.87,0,0,1,9.63,15.19,54.39,54.39,0,0,1,3.19,19,81.37,81.37,0,0,1-1.42,14.88A74.24,74.24,0,0,1,837,301.57a67.42,67.42,0,0,1-8.05,14.08,53.86,53.86,0,0,1-12.31,11.94,59.87,59.87,0,0,1-16.44,8A69.44,69.44,0,0,1,779.31,338.51ZM792.07,261a10.43,10.43,0,0,0-6.36,2,21.88,21.88,0,0,0-5.88,6.59,37.62,37.62,0,0,0-4.07,10.06,47,47,0,0,0-1.46,11.51c0,3.92.77,6.81,2.29,8.6a5.91,5.91,0,0,0,5,2.19,11.07,11.07,0,0,0,6.62-2,20.24,20.24,0,0,0,5.75-6.38,35.75,35.75,0,0,0,3.92-9.94A50.21,50.21,0,0,0,799.23,272a19.72,19.72,0,0,0-.67-5.32,9.92,9.92,0,0,0-1.57-3.33,6.13,6.13,0,0,0-2.08-1.76A6.19,6.19,0,0,0,792.07,261Z"/><path class="cls-6" d="M794.59,231.47a50.73,50.73,0,0,1,17.65,2.84,35.44,35.44,0,0,1,12.95,8.1,34.76,34.76,0,0,1,8,12.67,47.22,47.22,0,0,1,2.75,16.53,74,74,0,0,1-1.3,13.6,67,67,0,0,1-4.1,13.65,60.18,60.18,0,0,1-7.22,12.62,46.66,46.66,0,0,1-10.71,10.39,52.64,52.64,0,0,1-14.53,7,62.19,62.19,0,0,1-18.77,2.61,50.71,50.71,0,0,1-18.49-3.07,35.27,35.27,0,0,1-13-8.48,34.45,34.45,0,0,1-7.64-12.81,49.37,49.37,0,0,1-2.52-16,72.83,72.83,0,0,1,1.4-14,64.35,64.35,0,0,1,4.33-13.74A58.56,58.56,0,0,1,750.9,251a48.46,48.46,0,0,1,10.9-10.15A53.26,53.26,0,0,1,776.28,234a61.94,61.94,0,0,1,18.3-2.52m-13,77.5a18,18,0,0,0,10.66-3.26,27.33,27.33,0,0,0,7.73-8.52,42.57,42.57,0,0,0,4.7-11.87A57,57,0,0,0,806.23,272a26.54,26.54,0,0,0-.93-7.22,16.72,16.72,0,0,0-2.75-5.68A12.6,12.6,0,0,0,792.07,254a17.36,17.36,0,0,0-10.48,3.35,28.71,28.71,0,0,0-7.78,8.66A44.45,44.45,0,0,0,769,277.95a53.73,53.73,0,0,0-1.67,13.23q0,8.48,4,13.13A12.87,12.87,0,0,0,781.55,309m13-91.5a76.16,76.16,0,0,0-22.43,3.14,67.46,67.46,0,0,0-18.26,8.67,62.65,62.65,0,0,0-14,13.07,72.82,72.82,0,0,0-9.28,15.39,78.69,78.69,0,0,0-5.27,16.72,87.2,87.2,0,0,0-1.66,16.71,63.56,63.56,0,0,0,3.26,20.48,48.5,48.5,0,0,0,10.74,17.94,49.3,49.3,0,0,0,18.06,11.88,64.77,64.77,0,0,0,23.58,4,76.37,76.37,0,0,0,23-3.26,66.84,66.84,0,0,0,18.36-8.93,60.84,60.84,0,0,0,13.9-13.49,74.46,74.46,0,0,0,8.89-15.55,81.31,81.31,0,0,0,5-16.49,88.4,88.4,0,0,0,1.54-16.17,61.35,61.35,0,0,0-3.62-21.4,48.81,48.81,0,0,0-11.23-17.69,49.51,49.51,0,0,0-18-11.33,64.84,64.84,0,0,0-22.51-3.71h0Zm-3.15,50.12h0ZM781.8,295a10.85,10.85,0,0,1-.5-3.79,40,40,0,0,1,1.25-9.79,30.68,30.68,0,0,1,3.29-8.18,14.75,14.75,0,0,1,4-4.51,3.21,3.21,0,0,1,1.82-.66c0.05,0.14.12,0.32,0.18,0.54a12.75,12.75,0,0,1,.41,3.42A43.26,43.26,0,0,1,791,282a28.83,28.83,0,0,1-3.13,8,13.4,13.4,0,0,1-3.77,4.23,3.85,3.85,0,0,1-2.33.69h0Z"/><path class="cls-1" d="M393.36,465.84a42.8,42.8,0,0,1-15.41-2.44,27.61,27.61,0,0,1-11-7.39A27.14,27.14,0,0,1,361,445a45.77,45.77,0,0,1-1.51-12c0-1.33.08-2.83,0.24-4.44s0.35-3.14.61-4.79,0.54-3.2.86-4.8,0.6-3,.88-4.28l6.58-31.59h-7.45a7,7,0,0,1-6.81-8.64l5.69-23.68a7,7,0,0,1,6.81-5.36h9.7l4.09-18.87a7,7,0,0,1,5.17-5.31l33.84-8.33a7,7,0,0,1,8.53,8.22l-5.06,24.3h16.09a7,7,0,0,1,6.81,8.61l-5.59,23.68a7,7,0,0,1-6.81,5.39H415.07L408,416.32c-0.15.92-.32,1.9-0.53,2.93s-0.36,1.89-.52,2.83-0.31,1.91-.44,2.78a9.24,9.24,0,0,0-.13,1.26,6.63,6.63,0,0,0,0,.8,9.8,9.8,0,0,0,1.7.12,13.36,13.36,0,0,0,2-.21c1-.17,2.14-0.4,3.24-0.68s2.41-.65,3.51-1,2-.62,2.61-0.85a7,7,0,0,1,9.24,8l-5,23.78a7,7,0,0,1-4.32,5.09,51.33,51.33,0,0,1-5.19,1.66c-1.92.52-4,1-6.28,1.43s-4.63.8-7.06,1.09A63.57,63.57,0,0,1,393.36,465.84Z"/><path class="cls-7" d="M421.4,319.73l-6.81,32.72h24.69l-5.59,23.68H409.41L401.08,415q-0.21,1.32-.51,2.85t-0.56,3q-0.25,1.53-.46,2.9a15.94,15.94,0,0,0-.2,2.29q0,4.06,2,6t6.71,1.93a20.15,20.15,0,0,0,3.1-.3q1.88-.3,3.86-0.81t3.81-1.07q1.83-.56,2.95-1l-5,23.78a44.25,44.25,0,0,1-4.47,1.42q-2.64.71-5.79,1.32t-6.56,1a56.31,56.31,0,0,1-6.66.41,36.4,36.4,0,0,1-12.91-2,20.62,20.62,0,0,1-8.28-5.49,20.13,20.13,0,0,1-4.37-8.18A38.65,38.65,0,0,1,366.53,433q0-1.63.2-3.76t0.56-4.37q0.36-2.24.81-4.52t0.86-4.22l8.33-40H361.24l5.69-23.68h15.35l5.28-24.39,33.84-8.33m0-14a14,14,0,0,0-3.35.41l-33.84,8.33a14,14,0,0,0-10.34,10.63L371,338.45h-4.05a14,14,0,0,0-13.61,10.73l-5.69,23.68a14,14,0,0,0,12.46,17.22l-4.84,23.23c-0.27,1.3-.57,2.75-0.88,4.32s-0.65,3.4-.91,5.07-0.51,3.56-.67,5.26-0.27,3.52-.27,5.07a52.8,52.8,0,0,0,1.76,13.83,34.1,34.1,0,0,0,7.39,13.78,34.53,34.53,0,0,0,13.77,9.29,49.61,49.61,0,0,0,17.91,2.9,70.61,70.61,0,0,0,8.31-.5c2.6-.31,5.14-0.7,7.56-1.17s4.69-1,6.77-1.55a57.47,57.47,0,0,0,5.92-1.9,14,14,0,0,0,8.63-10.18l5-23.78a14,14,0,0,0-18.49-16c-0.36.13-1,.36-2.24,0.73l-0.08,0q0.08-.45.15-0.89l5.88-27.48h13a14,14,0,0,0,13.63-10.78l5.59-23.68a14,14,0,0,0-13.63-17.22h-7.48l3.3-15.87a14,14,0,0,0-13.71-16.85h0Z"/><path class="cls-1" d="M432.13,463.51a7,7,0,0,1-6.84-8.47l14.23-66.36c0.65-3.07,1.31-6.34,1.95-9.7s1.25-6.7,1.81-9.91,1.05-6.27,1.49-9.3,0.78-5.7,1-8.08a7,7,0,0,1,7-6.25h31.81a7,7,0,0,1,6.68,4.91,31,31,0,0,1,20.45-7.45,33.6,33.6,0,0,1,6.55.64c1.57,0.31,3,.57,4.25.76a7,7,0,0,1,5.81,8.37l-6.5,30.79A7,7,0,0,1,515,389h-0.2a7,7,0,0,1-3.25-.8,20.89,20.89,0,0,0-4.05-1.49,16.33,16.33,0,0,0-4.28-.66,14.57,14.57,0,0,0-7.34,1.79,21.92,21.92,0,0,0-6.4,5.54,35.87,35.87,0,0,0-5.13,9,74.92,74.92,0,0,0-3.67,11.94l-9.13,43.62a7,7,0,0,1-6.85,5.57H432.13Z"/><path class="cls-7" d="M511.7,349.91a26.48,26.48,0,0,1,5.18.51q2.54,0.51,4.57.81L515,382h-0.2a27.87,27.87,0,0,0-5.44-2,23.14,23.14,0,0,0-6.15-.92,21.57,21.57,0,0,0-10.77,2.69A29,29,0,0,0,484,389a42.69,42.69,0,0,0-6.15,10.72,81.6,81.6,0,0,0-4,13.06l-9.14,43.7H432.13l14.23-66.36q1-4.78,2-9.86t1.83-10q0.86-4.93,1.52-9.5t1.07-8.33h31.81q-0.3,2.95-.66,6.1t-0.71,6q-0.36,2.9-.71,5.23l-0.56,3.66h0.41q6.3-11.69,13.26-17.63a24.05,24.05,0,0,1,16.11-5.95m0-14a37.75,37.75,0,0,0-19.17,5,14,14,0,0,0-8-2.48H452.76a14,14,0,0,0-13.92,12.49c-0.25,2.31-.59,5-1,7.84s-0.92,6-1.46,9.08-1.17,6.52-1.79,9.81-1.28,6.52-1.92,9.56l-14.22,66.33a14,14,0,0,0,13.69,16.93h32.52a14,14,0,0,0,13.7-11.13l9.13-43.62a67.93,67.93,0,0,1,3.3-10.75,28.94,28.94,0,0,1,4.1-7.23,15,15,0,0,1,4.38-3.82,7.49,7.49,0,0,1,3.9-.89,9.38,9.38,0,0,1,2.41.41,14.45,14.45,0,0,1,2.67.94,14,14,0,0,0,6.5,1.6H515a14,14,0,0,0,13.7-11.11l6.5-30.79a14,14,0,0,0-11.61-16.74c-1.15-.17-2.46-0.41-3.9-0.7a40.68,40.68,0,0,0-7.94-.78h0Z"/><path class="cls-1" d="M551.47,466a39.11,39.11,0,0,1-16.5-3.39,33.9,33.9,0,0,1-12.58-10,43.59,43.59,0,0,1-7.42-15,68.84,68.84,0,0,1-2.4-18.84,85.65,85.65,0,0,1,1.15-12.8,84.28,84.28,0,0,1,4.21-16,81,81,0,0,1,8.5-16.69A64.93,64.93,0,0,1,540.69,358a70.49,70.49,0,0,1,20.86-11c8.05-2.74,17.55-4.13,28.22-4.13,4,0,8.13.16,12.18,0.48s8,0.74,11.87,1.26,7.64,1.14,11.3,1.84,6.93,1.38,10.05,2.07a7,7,0,0,1,5.33,8.29L626.3,423.62c-0.45,2-.88,4.39-1.3,7.18s-0.83,6-1.19,9.08-0.66,6.2-.89,9.18-0.33,5.36-.33,7.44a7,7,0,0,1-7,7H583.07a7,7,0,0,1-6.89-5.76l-1.1.82a40.92,40.92,0,0,1-10.35,5.4A39.65,39.65,0,0,1,551.47,466ZM587,379.47a23.42,23.42,0,0,0-9.46,1.74,24.76,24.76,0,0,0-7.18,4.74,29,29,0,0,0-5.28,6.88,47,47,0,0,0-3.67,8.45,51.53,51.53,0,0,0-2,8.45,53,53,0,0,0-.59,7.25,23.14,23.14,0,0,0,.57,5.34,9.3,9.3,0,0,0,1.32,3.16,4.77,4.77,0,0,0,1.65,1.53,4.39,4.39,0,0,0,2.16.45,9.82,9.82,0,0,0,6.14-2,26,26,0,0,0,6.23-6.78,47.59,47.59,0,0,0,4.95-10.28,108.81,108.81,0,0,0,3.49-12.17l3.71-16.74Q588,379.47,587,379.47Z"/><path class="cls-7" d="M589.78,349.91q5.79,0,11.63.46t11.48,1.22q5.64,0.76,10.92,1.78t9.86,2l-14.23,66.76q-0.71,3.15-1.37,7.62t-1.22,9.3q-0.56,4.83-.91,9.45t-0.36,8H583.07q0-1.53.15-3.91t0.36-4.88q0.2-2.49.46-4.88t0.46-4h-0.41q-2.95,4-6.1,7.62a40.73,40.73,0,0,1-7,6.45,33.78,33.78,0,0,1-8.59,4.47A32.57,32.57,0,0,1,551.47,459a32,32,0,0,1-13.57-2.74,26.84,26.84,0,0,1-10-7.93,36.48,36.48,0,0,1-6.2-12.65,61.65,61.65,0,0,1-2.13-16.92,79.7,79.7,0,0,1,1.07-11.74,77,77,0,0,1,3.86-14.63,73.66,73.66,0,0,1,7.77-15.24A57.68,57.68,0,0,1,545,363.52a63.26,63.26,0,0,1,18.8-9.86q11-3.76,26-3.76m-25.2,84.55a16.87,16.87,0,0,0,10.31-3.35,32.82,32.82,0,0,0,7.93-8.59,54.32,54.32,0,0,0,5.69-11.79,115.37,115.37,0,0,0,3.71-13l5.38-24.29a42.3,42.3,0,0,0-5.18-.76q-2.85-.25-5.39-0.25a30.17,30.17,0,0,0-12.3,2.34,31.59,31.59,0,0,0-9.2,6.1,35.82,35.82,0,0,0-6.55,8.54,53.82,53.82,0,0,0-4.22,9.7,58.11,58.11,0,0,0-2.24,9.6,59.57,59.57,0,0,0-.66,8.23,30,30,0,0,0,.76,7,16.12,16.12,0,0,0,2.39,5.54,11.77,11.77,0,0,0,4,3.66,11.24,11.24,0,0,0,5.54,1.32m25.2-98.55c-11.45,0-21.7,1.52-30.48,4.51a77.48,77.48,0,0,0-22.93,12.09,71.91,71.91,0,0,0-15.81,17,88,88,0,0,0-9.23,18.15,91.33,91.33,0,0,0-4.54,17.3,92.47,92.47,0,0,0-1.23,13.86,75.85,75.85,0,0,0,2.67,20.77A50.54,50.54,0,0,0,516.88,457,40.82,40.82,0,0,0,532,469a46,46,0,0,0,19.43,4,46.6,46.6,0,0,0,15.61-2.49,49,49,0,0,0,7.16-3.19,13.94,13.94,0,0,0,8.84,3.14h32.52a14,14,0,0,0,14-14c0-1.9.11-4.22,0.31-6.89,0.22-2.91.51-5.91,0.86-8.92s0.75-6.05,1.16-8.86c0.39-2.62.78-4.84,1.18-6.58l0-.17,14.23-66.76a14,14,0,0,0-10.66-16.59c-3.19-.71-6.64-1.42-10.24-2.11-3.8-.73-7.73-1.37-11.7-1.9s-8.13-1-12.26-1.3-8.51-.5-12.73-0.5h0Zm-23.64,84.22a17.28,17.28,0,0,1-.26-3.15,46.09,46.09,0,0,1,.52-6.27,44.37,44.37,0,0,1,1.71-7.29,40.11,40.11,0,0,1,3.13-7.2,21.7,21.7,0,0,1,4-5.22,17.37,17.37,0,0,1,4.86-3.25l-1.55,7a101.84,101.84,0,0,1-3.26,11.37,40.6,40.6,0,0,1-4.21,8.76,18.81,18.81,0,0,1-4.53,5,3.43,3.43,0,0,1-.42.27h0Z"/><path class="cls-1" d="M681.6,466a53.85,53.85,0,0,1-20.49-3.67,42.26,42.26,0,0,1-15.37-10.6,44.15,44.15,0,0,1-9.25-16.09,62.33,62.33,0,0,1-2.94-19.51,80.3,80.3,0,0,1,2.17-18.65A76.62,76.62,0,0,1,642,380.34a71.64,71.64,0,0,1,10.3-15,65.7,65.7,0,0,1,14.22-11.94,69.3,69.3,0,0,1,17.63-7.75,75.1,75.1,0,0,1,20.68-2.76,74,74,0,0,1,9.77.62A77.57,77.57,0,0,1,723,345.1a53.67,53.67,0,0,1,7,2.23,44.29,44.29,0,0,1,5.07,2.37,7,7,0,0,1,3.39,7.67l-5.79,25.2a7,7,0,0,1-11.07,4,25.72,25.72,0,0,0-7-3.53,28.75,28.75,0,0,0-9.57-1.53,19.34,19.34,0,0,0-9.92,2.52,26.69,26.69,0,0,0-8.08,7.11,34.81,34.81,0,0,0-5.33,10.25,36,36,0,0,0-1.89,11.23c0,5.23,1.07,9.13,3.19,11.6,0.69,0.8,2.78,3.24,9.32,3.24a28.1,28.1,0,0,0,5.08-.49,43.48,43.48,0,0,0,5.64-1.44c2-.64,3.84-1.36,5.61-2.14a36.11,36.11,0,0,0,4.55-2.38,7,7,0,0,1,10.57,7.32l-5,24.59a7,7,0,0,1-3.66,4.83,76.48,76.48,0,0,1-16.22,6.1A70.87,70.87,0,0,1,681.6,466Z"/><path class="cls-7" d="M704.87,349.91a66.75,66.75,0,0,1,8.84.56,70.23,70.23,0,0,1,7.62,1.42,46.58,46.58,0,0,1,6.1,1.93,38,38,0,0,1,4.27,2L725.91,381a32.41,32.41,0,0,0-8.94-4.57,35.57,35.57,0,0,0-11.89-1.93A26.39,26.39,0,0,0,691.66,378a33.86,33.86,0,0,0-10.16,8.94,41.62,41.62,0,0,0-6.4,12.3,42.82,42.82,0,0,0-2.24,13.41q0,10.47,4.88,16.16t14.63,5.69a35,35,0,0,0,6.35-.61,50.34,50.34,0,0,0,6.55-1.68q3.25-1.07,6.25-2.39a43,43,0,0,0,5.44-2.84l-5,24.59a69.15,69.15,0,0,1-14.74,5.54,63.59,63.59,0,0,1-15.65,2,46.72,46.72,0,0,1-17.83-3.15,35.14,35.14,0,0,1-12.85-8.84,37,37,0,0,1-7.77-13.57,55.14,55.14,0,0,1-2.59-17.33,73,73,0,0,1,2-17,69.24,69.24,0,0,1,5.74-15.6,64.37,64.37,0,0,1,9.3-13.52,58.45,58.45,0,0,1,12.7-10.67,62,62,0,0,1,15.85-7,67.82,67.82,0,0,1,18.75-2.49m0-14a82.12,82.12,0,0,0-22.6,3,76.32,76.32,0,0,0-19.41,8.54,72.72,72.72,0,0,0-15.73,13.21,78.69,78.69,0,0,0-11.31,16.45,83.56,83.56,0,0,0-6.9,18.73,87.33,87.33,0,0,0-2.37,20.28,69.33,69.33,0,0,0,3.29,21.71,51.09,51.09,0,0,0,10.72,18.62,49.19,49.19,0,0,0,17.89,12.36A60.78,60.78,0,0,0,681.6,473a77.9,77.9,0,0,0,19.08-2.41A83.5,83.5,0,0,0,718.4,464a14,14,0,0,0,7.31-9.67l5-24.59a14,14,0,0,0-21.14-14.65,29.17,29.17,0,0,1-3.66,1.91c-1.56.69-3.24,1.33-5,1.9a36.52,36.52,0,0,1-4.73,1.21,21.14,21.14,0,0,1-3.81.38c-2.28,0-3.67-.41-4-0.8-0.94-1.1-1.51-3.74-1.51-7a29.07,29.07,0,0,1,1.54-9,27.46,27.46,0,0,1,4.25-8.2,19.82,19.82,0,0,1,6-5.28,12.53,12.53,0,0,1,6.42-1.58,21.81,21.81,0,0,1,7.24,1.14,18.64,18.64,0,0,1,5.09,2.49,14,14,0,0,0,22.14-8l5.79-25.2a14,14,0,0,0-6.79-15.34,51.17,51.17,0,0,0-5.88-2.76,60.75,60.75,0,0,0-7.94-2.53,84.59,84.59,0,0,0-9.16-1.72,81.11,81.11,0,0,0-10.7-.68h0Z"/><path class="cls-1" d="M796.8,463.51a7,7,0,0,1-6.45-4.27l-14.51-34.3-7,33a7,7,0,0,1-6.85,5.56H729.73a7,7,0,0,1-6.84-8.49l29.7-135.92a7,7,0,0,1,6.84-5.51h32.42a7,7,0,0,1,6.83,8.54L787,374.06l24.15-26.34a7,7,0,0,1,5.16-2.27h38.11a7,7,0,0,1,5,11.93l-45.17,45.55,24.65,50.51a7,7,0,0,1-6.29,10.07H796.8Z"/><path class="cls-7" d="M791.84,320.59l-17.3,77h0.41l41.36-45.12h38.11l-48.67,49.08,26.83,55H796.8l-22.86-54.06h-0.51L762,456.51H729.73l29.7-135.92h32.42m0-14H759.43a14,14,0,0,0-13.68,11l-29.7,135.92a14,14,0,0,0,13.68,17H762a14,14,0,0,0,13.7-11.12l2.35-11.17L783.9,462a14,14,0,0,0,12.89,8.55h35.77a14,14,0,0,0,12.58-20.14l-22.47-46,41.67-42a14,14,0,0,0-9.94-23.86H816.31A14,14,0,0,0,806,343l-6.4,7,5.91-26.31a14,14,0,0,0-13.66-17.07h0Z"/></svg>