<svg id="Layer_1" data-name="Layer 1" xmlns="http://www.w3.org/2000/svg" viewBox="0 0 128 128"><defs><style>.cls-1{fill:#fff;}.cls-2{fill:#30398b;}.cls-3{fill:#FFF158;}</style></defs><title>mtrack_icon</title><path class="cls-1" d="M66.11,78a3.53,3.53,0,0,1-3.45-4.26l5.53-25.83c0.16-.84.33-1.8,0.51-2.8a10.78,10.78,0,0,0,.21-1.69,2.65,2.65,0,0,0-.16-1.05,2.38,2.38,0,0,0-.66-0.07,3.72,3.72,0,0,0-1.76.64,13.06,13.06,0,0,0-2.83,2.37A18,18,0,0,0,61,48.84a14.58,14.58,0,0,0-1.48,3.95L54.87,75.16A3.52,3.52,0,0,1,51.42,78H37.31a3.52,3.52,0,0,1-3.45-4.26l5.53-25.83c0.16-.84.33-1.8,0.51-2.8a11.11,11.11,0,0,0,.21-1.69,2.2,2.2,0,0,0-.18-1.07h0a3.7,3.7,0,0,0-.62-0.05,3.74,3.74,0,0,0-1.8.64,12.36,12.36,0,0,0-2.78,2.36,18.6,18.6,0,0,0-2.49,3.59,15.06,15.06,0,0,0-1.47,3.94L26,75.18A3.52,3.52,0,0,1,22.53,78H8.38A3.52,3.52,0,0,1,4.94,73.7l6.72-31.05,0.78-4q0.39-2,.69-3.84t0.54-3.44q0.24-1.56.36-2.62a3.52,3.52,0,0,1,3.5-3.1h13.8a3.52,3.52,0,0,1,3.5,3.1q0.66-.46,1.34-0.88a24.73,24.73,0,0,1,5.11-2.4,17.79,17.79,0,0,1,5.63-.93c4.5,0,8,1.28,10.52,3.8a13.36,13.36,0,0,1,2.21,3,28.31,28.31,0,0,1,4.5-3.41,24.55,24.55,0,0,1,5.48-2.48,20.27,20.27,0,0,1,6-.91c4.75,0,8.46,1.41,11.05,4.2s3.8,6.49,3.8,11.22a19,19,0,0,1-.16,2.19c-0.1.79-.21,1.61-0.35,2.46s-0.29,1.64-.44,2.42-0.29,1.45-.41,2L83.58,75.17A3.52,3.52,0,0,1,80.13,78h-14Z"/><path class="cls-2" d="M89.26,26.32C86,22.79,81.38,21,75.62,21a23.79,23.79,0,0,0-7,1.07,28.09,28.09,0,0,0-6.27,2.83q-1,.62-2,1.33l-0.37-.38c-3.17-3.22-7.55-4.85-13-4.85a21.27,21.27,0,0,0-6.74,1.11A27.92,27.92,0,0,0,36,23.88a7,7,0,0,0-4.68-1.78H17.54a7,7,0,0,0-7,6.21c-0.08.65-.2,1.5-0.35,2.51S9.86,33,9.65,34.22,9.23,36.66,9,38s-0.52,2.68-.78,4L1.49,73a7,7,0,0,0,6.89,8.54H22.53c3.32,0,5.72-2.45,6.88-5.55a2.35,2.35,0,0,1,.55-1.2c0.14,0,.09.32,0.41,1.2a8.88,8.88,0,0,0,1.46,2.94,7,7,0,0,0,5.48,2.61H51.42a7,7,0,0,0,6.9-5.61,2.65,2.65,0,0,1,.4-1.14,2.53,2.53,0,0,1,.35,1.14,7.75,7.75,0,0,0,1.56,3,7,7,0,0,0,5.48,2.61h14A7,7,0,0,0,87,75.9l5.52-26.16q0.19-.85.43-2.05c0.15-.79.31-1.63,0.45-2.51s0.28-1.8.38-2.63A22.3,22.3,0,0,0,94,39.94C94,34.29,92.39,29.71,89.26,26.32ZM86.81,41.71q-0.13,1.11-.33,2.3t-0.42,2.32c-0.15.75-.28,1.39-0.4,1.92L80.13,74.44h-14l5.53-25.83c0.18-.94.36-1.92,0.53-2.92a14.59,14.59,0,0,0,.26-2.3A5.06,5.06,0,0,0,71.37,40a4.12,4.12,0,0,0-3.27-1.22,7,7,0,0,0-3.58,1.15,16.42,16.42,0,0,0-3.6,3,21.56,21.56,0,0,0-3,4.25,18,18,0,0,0-1.84,4.91L51.42,74.44H37.31l5.53-25.83q0.27-1.42.53-2.92a14.43,14.43,0,0,0,.26-2.3A5,5,0,0,0,42.55,40a4.14,4.14,0,0,0-3.25-1.22,7,7,0,0,0-3.63,1.15,15.72,15.72,0,0,0-3.58,3,21.83,21.83,0,0,0-3,4.27,18.37,18.37,0,0,0-1.81,4.87L22.53,74.44H8.38L15.1,43.39,15.9,39.3q0.4-2.06.71-3.94t0.55-3.49q0.24-1.61.38-2.72h13.8Q31.2,30.38,31,31.73t-0.31,2.59q-0.16,1.24-.29,2.19t-0.22,1.35h0.18A32.42,32.42,0,0,1,34,33.95a25.72,25.72,0,0,1,4-3.1,21.16,21.16,0,0,1,4.38-2.06A14.18,14.18,0,0,1,46.91,28q5.31,0,8,2.74a12,12,0,0,1,3.14,7.61,31.4,31.4,0,0,1,3.67-4.2A24.8,24.8,0,0,1,66,30.92a20.88,20.88,0,0,1,4.69-2.12,16.66,16.66,0,0,1,5-.75q5.62,0,8.47,3.07t2.85,8.82A15.82,15.82,0,0,1,86.81,41.71Z"/><path class="cls-2" d="M89.26,26.32C86,22.79,81.38,21,75.62,21a23.79,23.79,0,0,0-7,1.07,28.09,28.09,0,0,0-6.27,2.83q-1,.62-2,1.33l-0.37-.38c-3.17-3.22-7.55-4.85-13-4.85a21.27,21.27,0,0,0-6.74,1.11A27.92,27.92,0,0,0,36,23.88a7,7,0,0,0-4.68-1.78H17.54a7,7,0,0,0-7,6.21c-0.08.65-.2,1.5-0.35,2.51S9.86,33,9.65,34.22,9.23,36.66,9,38s-0.52,2.68-.78,4L1.49,73a7,7,0,0,0,6.89,8.54H22.53c3.32,0,5.72-2.45,6.88-5.55a2.35,2.35,0,0,1,.55-1.2c0.14,0,.09.32,0.41,1.2a8.88,8.88,0,0,0,1.46,2.94,7,7,0,0,0,5.48,2.61H51.42a7,7,0,0,0,6.9-5.61,2.65,2.65,0,0,1,.4-1.14,2.53,2.53,0,0,1,.35,1.14,7.75,7.75,0,0,0,1.56,3,7,7,0,0,0,5.48,2.61h14A7,7,0,0,0,87,75.9l5.52-26.16q0.19-.85.43-2.05c0.15-.79.31-1.63,0.45-2.51s0.28-1.8.38-2.63A22.3,22.3,0,0,0,94,39.94C94,34.29,92.39,29.71,89.26,26.32ZM86.81,41.71q-0.13,1.11-.33,2.3t-0.42,2.32c-0.15.75-.28,1.39-0.4,1.92L80.13,74.44h-14l5.53-25.83c0.18-.94.36-1.92,0.53-2.92a14.59,14.59,0,0,0,.26-2.3A5.06,5.06,0,0,0,71.37,40a4.12,4.12,0,0,0-3.27-1.22,7,7,0,0,0-3.58,1.15,16.42,16.42,0,0,0-3.6,3,21.56,21.56,0,0,0-3,4.25,18,18,0,0,0-1.84,4.91L51.42,74.44H37.31l5.53-25.83q0.27-1.42.53-2.92a14.43,14.43,0,0,0,.26-2.3A5,5,0,0,0,42.55,40a4.14,4.14,0,0,0-3.25-1.22,7,7,0,0,0-3.63,1.15,15.72,15.72,0,0,0-3.58,3,21.83,21.83,0,0,0-3,4.27,18.37,18.37,0,0,0-1.81,4.87L22.53,74.44H8.38L15.1,43.39,15.9,39.3q0.4-2.06.71-3.94t0.55-3.49q0.24-1.61.38-2.72h13.8Q31.2,30.38,31,31.73t-0.31,2.59q-0.16,1.24-.29,2.19t-0.22,1.35h0.18A32.42,32.42,0,0,1,34,33.95a25.72,25.72,0,0,1,4-3.1,21.16,21.16,0,0,1,4.38-2.06A14.18,14.18,0,0,1,46.91,28q5.31,0,8,2.74a12,12,0,0,1,3.14,7.61,31.4,31.4,0,0,1,3.67-4.2A24.8,24.8,0,0,1,66,30.92a20.88,20.88,0,0,1,4.69-2.12,16.66,16.66,0,0,1,5-.75q5.62,0,8.47,3.07t2.85,8.82A15.82,15.82,0,0,1,86.81,41.71Z"/><path class="cls-3" d="M96.76,110.56a22.06,22.06,0,0,1-7.83-1.24,13.87,13.87,0,0,1-5.53-3.7,13.59,13.59,0,0,1-2.94-5.5,23.19,23.19,0,0,1-.77-6.1c0-.66,0-1.42.12-2.25s0.18-1.63.32-2.47,0.28-1.63.45-2.47,0.31-1.55.45-2.23l3.56-17.09H79.7a3.11,3.11,0,0,1-3-3.76l2.66-12.32a3.1,3.1,0,0,1,3-2.45h6.14l2.22-10.24A3.11,3.11,0,0,1,93,36.36L110.62,32a3.11,3.11,0,0,1,3.79,3.65L111.64,49h9a3.11,3.11,0,0,1,3,3.82l-2.91,12.32a3.11,3.11,0,0,1-3,2.39H107.63l-3.79,17.72c-0.08.47-.17,1-0.28,1.52s-0.19,1-.27,1.48-0.16,1-.23,1.46a5.19,5.19,0,0,0-.07.73,2.55,2.55,0,0,0,.11.85,3.93,3.93,0,0,0,1.34.17,7.35,7.35,0,0,0,1.11-.12c0.56-.09,1.14-0.21,1.74-0.37s1.25-.34,1.84-0.52,1-.33,1.39-0.45a3.11,3.11,0,0,1,4.1,3.56L112,105.92a3.11,3.11,0,0,1-1.92,2.26,25.53,25.53,0,0,1-2.65.85c-1,.27-2.08.51-3.23,0.74s-2.39.41-3.63,0.56A32.66,32.66,0,0,1,96.76,110.56Z"/><path class="cls-2" d="M111.36,35l-3.54,17h12.85L117.76,64.4H105.12l-4.34,20.26q-0.11.69-.26,1.48c-0.11.53-.2,1.06-0.29,1.59s-0.17,1-.24,1.51a8.31,8.31,0,0,0-.11,1.19,4.12,4.12,0,0,0,1.06,3.12,5,5,0,0,0,3.49,1,10.35,10.35,0,0,0,1.61-.16q1-.16,2-0.42t2-.56q1-.29,1.53-0.5L109,105.28a23.08,23.08,0,0,1-2.33.74q-1.38.37-3,.69t-3.41.53a29.31,29.31,0,0,1-3.46.21,19,19,0,0,1-6.72-1,10.74,10.74,0,0,1-4.31-2.86,10.43,10.43,0,0,1-2.27-4.26A20,20,0,0,1,82.8,94q0-.85.11-2t0.29-2.27c0.12-.77.27-1.56,0.42-2.35s0.31-1.53.45-2.2L88.41,64.4H79.7l2.65-12.32H91l2.75-12.69L111.36,35m0-6.22a6.22,6.22,0,0,0-1.49.18L92.26,33.34a6.22,6.22,0,0,0-4.59,4.72L86,45.86H82.35a6.22,6.22,0,0,0-6.08,4.91L73.62,63.09a6.22,6.22,0,0,0,6.08,7.52h1.06L78,84c-0.14.67-.3,1.43-0.46,2.25s-0.33,1.77-.47,2.6-0.26,1.79-.34,2.66-0.13,1.77-.13,2.54a26.44,26.44,0,0,0,.88,6.92,16.68,16.68,0,0,0,3.62,6.75,16.94,16.94,0,0,0,6.75,4.54,24.75,24.75,0,0,0,8.94,1.44,35.74,35.74,0,0,0,4.2-.26c1.32-.16,2.62-0.36,3.86-0.6s2.39-.5,3.45-0.79a28.41,28.41,0,0,0,3-1,6.22,6.22,0,0,0,3.83-4.52l2.59-12.38a6.22,6.22,0,0,0-8.21-7.12c-0.2.07-.58,0.2-1.22,0.4s-1.13.33-1.72,0.48h0l0.11-.58c0.11-.53.2-1.05,0.29-1.57l3.25-15.18h7.61a6.22,6.22,0,0,0,6.05-4.79l2.91-12.32a6.22,6.22,0,0,0-6.05-7.65h-5.21l2-9.55a6.22,6.22,0,0,0-6.09-7.48h0Z"/></svg>